<?xml version="1.0" encoding="UTF-8"?>
<svg width="46px" height="46px" viewBox="0 0 46 46" version="1.1" xmlns="http://www.w3.org/2000/svg" xmlns:xlink="http://www.w3.org/1999/xlink">
    <title>Group</title>
    <g id="Symbols" stroke="none" stroke-width="1" fill="none" fill-rule="evenodd">
        <g id="Group">
            <rect id="Rectangle-Copy-47" fill="#003CFF" x="0" y="0" width="46" height="46" rx="8.01899922"></rect>
            <path d="M15.0335182,17.1339205 L10.1560919,31.5346151 C9.67265283,32.9646741 10.3497544,34.3647019 11.668094,34.6707345 C12.9864337,34.9767672 14.4467925,34.0672496 14.9302315,32.6414808 L19.8076578,18.2407862 C20.2896623,16.8107272 19.6125608,15.4106994 18.2942211,15.1060968 C16.9758815,14.8014942 15.5169572,15.7038615 15.0335182,17.1339205 Z M23.3034779,16.9088335 L19.3898152,28.5913068 C18.9072303,30.0335875 19.5831355,31.4455803 20.8991458,31.7542283 C22.215156,32.0628764 23.6729346,31.1455859 24.1555194,29.7076321 L28.0691822,18.0251587 C28.551767,16.582878 27.8758618,15.1708853 26.5598516,14.8636795 C25.2438413,14.5564737 23.7860628,15.4651105 23.3034779,16.9030643 L23.3034779,16.9088335 Z M31.3221682,16.9088335 L27.4088025,28.5913068 C26.9262544,30.0335875 27.6021082,31.4455803 28.9180186,31.7542283 C30.2339289,32.0628764 31.6915968,31.1455859 32.174145,29.7076321 L36.0889425,18.0251587 C36.5700588,16.582878 35.8942049,15.1708853 34.5782946,14.8636795 C33.2623842,14.5564737 31.7989888,15.4651105 31.3221682,16.9030643 L31.3221682,16.9088335 Z M17.4458343,10.113942 C16.9622977,11.561224 17.6415514,12.978113 18.9640814,13.286384 C20.2866113,13.5946551 21.7516119,12.6770783 22.2365875,11.2341382 C22.7215631,9.79119817 22.0408703,8.36996732 20.7183404,8.06024899 C19.3958104,7.75053066 17.9308099,8.66521283 17.4458343,10.1081529 L17.4458343,10.113942 Z" id="Shape-Copy-4" fill="#A3A8BF" opacity="0.889999986"></path>
        </g>
    </g>
</svg>