<?xml version="1.0" encoding="UTF-8"?>
<svg width="61px" height="36px" viewBox="0 0 61 36" version="1.1" xmlns="http://www.w3.org/2000/svg" xmlns:xlink="http://www.w3.org/1999/xlink">
    <title>Group 2</title>
    <g id="Symbols" stroke="none" stroke-width="1" fill="none" fill-rule="evenodd">
        <g id="header-1" transform="translate(-55.000000, -3.000000)" fill="#99887F" fill-rule="nonzero">
            <g id="Group-2" transform="translate(55.468445, 3.572100)">
                <path d="M2.17484979,3.53564966 C2.76614973,3.53564966 3.27847468,3.38377467 3.71182464,3.0800247 C4.1451746,2.77627473 4.36184958,2.34089977 4.36184958,1.77389983 C4.36184958,1.20689988 4.1451746,0.769499925 3.71182464,0.461699955 C3.27847468,0.153899985 2.76614973,0 2.17484979,0 C1.59164985,0 1.08337489,0.153899985 0.650024937,0.461699955 C0.216674979,0.769499925 0,1.20689988 0,1.77389983 C0,2.33279977 0.216674979,2.76614973 0.650024937,3.0739497 C1.08337489,3.38174967 1.59164985,3.53564966 2.17484979,3.53564966 Z M4.04594961,19.6375995 L4.04594961,5.63759945 L0.315899969,5.63759945 L0.315899969,19.6375995 L4.04594961,19.6375995 Z M11.1099444,18.7838982 C11.9280443,18.7838982 12.6631192,18.6380982 13.3151692,18.3464982 C13.9672191,18.0548982 14.5200441,17.6478733 14.973644,17.1254233 C15.103244,16.9761519 15.2244134,16.8197723 15.3371521,16.6562846 L15.3371529,16.6576486 C15.3377003,17.6978989 16.1811434,18.5408982 17.2213938,18.5408982 C18.2614839,18.5408982 19.1046436,17.6977385 19.1046436,16.6576484 L19.1046436,5.63759945 L19.1046436,5.63759945 L15.338144,5.63759945 L15.338144,12.1742988 C15.338144,12.7331988 15.228794,13.2758987 15.010094,13.8023987 C14.791394,14.3288986 14.4754941,14.7602236 14.0623941,15.0963735 C13.6492941,15.4325235 13.1470942,15.6005985 12.5557942,15.6005985 C11.9482943,15.6005985 11.4805193,15.4628985 11.1524694,15.1874985 C10.8244194,14.9120986 10.5996444,14.5475986 10.4781444,14.0939986 C10.3566445,13.6403987 10.2958945,13.1422487 10.2958945,12.5995488 L10.2958945,5.63759945 L6.52939483,5.63759945 L6.52939483,13.5958487 C6.52939483,14.2276486 6.59824482,14.8513486 6.73594481,15.4669485 C6.8736448,16.0825484 7.11259477,16.6414484 7.45279474,17.1436483 C7.79299471,17.6458483 8.25874466,18.0447732 8.85004461,18.3404232 C9.44134455,18.6360732 10.1946445,18.7838982 11.1099444,18.7838982 Z M25.9960897,18.8081982 C26.7979896,18.8081982 27.5452146,18.7049232 28.2377645,18.4983732 C28.9303144,18.2918232 29.5297144,17.9961733 30.0359643,17.6114233 C30.1625268,17.5152358 30.2803565,17.4143655 30.3894534,17.3088124 L30.5205501,17.1728996 L30.5489643,17.2847233 L30.5489643,17.2847233 L30.6373893,17.5688983 C30.7183893,17.8037983 30.8176142,18.0103483 30.9350642,18.1885482 C31.0525142,18.3667482 31.1395892,18.4841982 31.1962892,18.5408982 L31.1962892,18.5408982 L34.9020389,18.5408982 C34.8210389,18.4679982 34.7197889,18.3383982 34.5982889,18.1520982 C34.4767889,17.9657983 34.3755389,17.7308983 34.2945389,17.4473983 C34.2216389,17.1962983 34.1750639,16.9188734 34.1548139,16.6151234 C34.1345639,16.3113734 34.1244389,15.9934484 34.1244389,15.6613485 L34.1244389,15.6613485 L34.1244389,10.084499 C34.1244389,9.02339912 33.830814,8.14859921 33.243564,7.46009928 C32.6563141,6.77159934 31.8807391,6.25522439 30.9168392,5.91097443 C29.9529393,5.56672446 28.9039894,5.39459948 27.7699895,5.39459948 C26.5549897,5.39459948 25.4655398,5.57887446 24.5016399,5.94742442 C23.53774,6.31597439 22.774315,6.85664933 22.2113651,7.56944926 C21.6484151,8.2822492 21.3669402,9.15704911 21.3669402,10.193849 L21.3669402,10.193849 L25.0726898,10.193849 C25.0726898,9.55394907 25.3015148,9.07807412 25.7591647,8.76622415 C26.2168147,8.45437418 26.8789896,8.29844919 27.7456895,8.29844919 C28.5637895,8.29844919 29.2016644,8.43614918 29.6593144,8.71154915 C30.1169643,8.98694913 30.3457893,9.36359909 30.3457893,9.84149904 L30.3457893,9.84149904 L30.3457893,9.86579904 C30.3457893,10.149299 30.0764643,10.347749 29.5378144,10.461149 C28.9991644,10.574549 28.0210895,10.700099 26.6035897,10.8377989 C25.6315898,10.9349989 24.7304648,11.1354739 23.9002149,11.4392239 C23.069965,11.7429739 22.4037401,12.1823988 21.9015401,12.7574988 C21.3993402,13.3325987 21.1482402,14.0777986 21.1482402,14.9930985 C21.1482402,15.8030985 21.3547902,16.4915984 21.7678901,17.0585983 C22.1809901,17.6255983 22.754065,18.0589482 23.487115,18.3586482 C24.2201649,18.6583482 25.0564898,18.8081982 25.9960897,18.8081982 Z M27.0045396,15.9893984 C26.3160397,15.9893984 25.7976397,15.8780235 25.4493398,15.6552735 C25.1010398,15.4325235 24.9268898,15.0983985 24.9268898,14.6528986 C24.9268898,14.1830986 25.1314148,13.8489737 25.5404648,13.6505237 C25.9495147,13.4520737 26.5671397,13.3123487 27.3933396,13.2313487 C28.0899395,13.1584487 28.7885644,13.0592237 29.4892144,12.9336737 C29.7227644,12.8918237 29.9470893,12.8461488 30.1621893,12.7966488 L30.4055501,12.7378996 L30.4065393,12.8425488 C30.4065393,13.5049487 30.2785393,14.0553486 30.0225393,14.4937486 L29.9205393,14.6528986 C29.5965394,15.1145985 29.1773644,15.4527735 28.6630145,15.6674235 C28.1486645,15.8820735 27.5958396,15.9893984 27.0045396,15.9893984 Z M40.3427896,18.5408982 L40.3427896,11.7854989 C40.3427896,11.1617989 40.4561896,10.610999 40.6829896,10.133099 C40.9097896,9.65519906 41.2358145,9.2825991 41.6610645,9.01529912 C42.0863145,8.74799915 42.5905394,8.61434916 43.1737394,8.61434916 C43.8460393,8.61434916 44.3603892,8.74799915 44.7167892,9.01529912 C45.0731892,9.2825991 45.3202392,9.63697406 45.4579391,10.078424 C45.5956391,10.519874 45.6644891,11.0078989 45.6644891,11.5424989 L45.6644891,18.5408982 L49.4188388,18.5408982 L49.4188388,10.461149 C49.4188388,9.44864908 49.2507638,8.56372417 48.9146138,7.80637424 C48.5784638,7.04902432 48.0681639,6.45772437 47.383714,6.03247441 C46.699264,5.60722446 45.8264891,5.39459948 44.7653892,5.39459948 C43.7528893,5.39459948 42.8315144,5.63354945 42.0012645,6.11144941 C41.4200895,6.44597937 40.9232558,6.86981183 40.5107634,7.38294678 L40.3425501,7.60389957 L40.3425602,7.52084926 C40.3426869,6.48088581 39.4997327,5.63772616 38.4597692,5.63759947 C38.4596927,5.63759946 38.4596163,5.63759945 38.4595398,5.63759945 C37.4194497,5.63759945 36.57629,6.48075912 36.57629,7.52084927 L36.57629,18.5408982 L36.57629,18.5408982 L40.3427896,18.5408982 Z" id="iuan"></path>
                <path d="M4.22819959,33.8498967 L4.22819959,27.1795474 C4.22819959,26.7502474 4.27274958,26.3391724 4.36184958,25.9463225 C4.45094957,25.5534725 4.59067455,25.2051726 4.78102454,24.9014226 C4.97137452,24.5976726 5.21639949,24.3587226 5.51609946,24.1845727 C5.81579944,24.0104227 6.1721994,23.9233477 6.58529936,23.9233477 C7.03079932,23.9233477 7.38314928,24.0063727 7.64234926,24.1724227 C7.90154923,24.3384726 8.09392421,24.5612226 8.2194742,24.8406726 C8.34502419,25.1201226 8.42602418,25.4218475 8.46247418,25.7458475 C8.49892417,26.0698475 8.51714917,26.3978974 8.51714917,26.7299974 L8.51714917,33.8498967 L12.2593488,33.8498967 L12.2593488,27.1066474 C12.2593488,26.6935474 12.3018738,26.2966474 12.3869238,25.9159475 C12.4719738,25.5352475 12.6076488,25.1950476 12.7939488,24.8953476 C12.9802487,24.5956476 13.2212237,24.3587226 13.5168737,24.1845727 C13.8125237,24.0104227 14.1668986,23.9233477 14.5799986,23.9233477 C15.0254985,23.9233477 15.3778485,24.0002977 15.6370485,24.1541977 C15.8962485,24.3080976 16.0906484,24.5186976 16.2202484,24.7859976 C16.3498484,25.0532976 16.4348984,25.3509725 16.4753984,25.6790225 C16.5158984,26.0070725 16.5361484,26.3492974 16.5361484,26.7056974 L16.5361484,33.8498967 L20.302648,33.8498967 L20.302648,25.6364975 C20.302648,24.7211976 20.171023,23.8929727 19.9077731,23.1518228 C19.6445231,22.4106728 19.2071231,21.8173479 18.5955732,21.3718479 C17.9840233,20.926348 17.1517483,20.703598 16.0987484,20.703598 C15.0862485,20.703598 14.2175236,20.944573 13.4925737,21.4265229 C12.7676238,21.9084729 12.2087238,22.5665978 11.8158739,23.4008977 L11.8965501,23.2398981 L11.8887738,23.2125727 C11.6691739,22.5393728 11.3087739,21.9845729 10.807574,21.5481729 L10.613024,21.3900729 C10.009574,20.932423 9.16919911,20.703598 8.09189921,20.703598 C7.08749931,20.703598 6.2187744,20.944573 5.48572447,21.4265229 C4.99702451,21.7478229 4.58302455,22.1501228 4.24372459,22.6334228 L4.2275501,22.6578981 C4.22790867,21.7131318 3.46231492,20.9469567 2.5175486,20.9465981 C2.51733218,20.946598 2.51711577,20.946598 2.51689935,20.946598 L2.34494977,20.946598 C1.30485962,20.946598 0.461699955,21.7897576 0.461699955,22.8298478 L0.461699955,33.8498967 L0.461699955,33.8498967 L4.22819959,33.8498967 Z M28.3070204,34.1293467 C29.7002202,34.1293467 30.9273701,33.8417967 31.98847,33.2666968 C33.0495699,32.6915968 33.8777948,31.8998219 34.4731448,30.891372 C35.0684947,29.8829221 35.3661697,28.7185472 35.3661697,27.3982473 C35.3661697,26.0860475 35.0684947,24.9257226 34.4731448,23.9172727 C33.8777948,22.9088228 33.0495699,22.1231229 31.98847,21.5601729 C30.9273701,20.997223 29.7002202,20.715748 28.3070204,20.715748 C26.9138205,20.715748 25.6866706,20.997223 24.6255707,21.5601729 C23.5644708,22.1231229 22.7362459,22.9088228 22.140896,23.9172727 C21.545546,24.9257226 21.2478711,26.0860475 21.2478711,27.3982473 C21.2478711,28.7185472 21.545546,29.8829221 22.140896,30.891372 C22.7362459,31.8998219 23.5644708,32.6915968 24.6255707,33.2666968 C25.6866706,33.8417967 26.9138205,34.1293467 28.3070204,34.1293467 Z M28.3070204,31.140447 C27.6590204,31.140447 27.0899955,30.986547 26.5999455,30.678747 C26.1098956,30.370947 25.7312206,29.9355721 25.4639207,29.3726221 C25.1966207,28.8096722 25.0629707,28.1515473 25.0629707,27.3982473 C25.0629707,26.6449474 25.1966207,25.9908725 25.4639207,25.4360225 C25.7312206,24.8811726 26.1098956,24.4538976 26.5999455,24.1541977 C27.0899955,23.8544977 27.6590204,23.7046477 28.3070204,23.7046477 C28.9631203,23.7046477 29.5341703,23.8544977 30.0201702,24.1541977 C30.5061702,24.4538976 30.8828201,24.8811726 31.1501201,25.4360225 C31.4174201,25.9908725 31.5510701,26.6449474 31.5510701,27.3982473 C31.5510701,28.1515473 31.4174201,28.8096722 31.1501201,29.3726221 C30.8828201,29.9355721 30.5061702,30.370947 30.0201702,30.678747 C29.5341703,30.986547 28.9631203,31.140447 28.3070204,31.140447 Z M40.2140222,33.8498967 L40.2140222,27.7627473 C40.2140222,27.3172473 40.2707222,26.8757974 40.3841222,26.4383974 C40.4975222,26.0009975 40.6858471,25.6020725 40.9490971,25.2416225 C41.2123471,24.8811726 41.5626721,24.5915976 42.000072,24.3728976 C42.437472,24.1541977 42.9801719,24.0448477 43.6281719,24.0448477 C44.0250718,24.0448477 44.3490718,24.0893977 44.6001718,24.1784977 C44.8512717,24.2675976 45.0132717,24.3323976 45.0861717,24.3728976 L45.0861717,24.3728976 L45.7058217,20.995198 C45.6329217,20.954698 45.4486467,20.895973 45.1529967,20.819023 C44.8573467,20.742073 44.4503218,20.703598 43.9319218,20.703598 C43.2677219,20.703598 42.678447,20.808898 42.164097,21.019498 C41.6497471,21.2300979 41.2062721,21.5237229 40.8336721,21.9003729 C40.6473722,22.0886979 40.4782847,22.2937291 40.3264097,22.5154666 L40.2135501,22.6898981 L40.2140222,20.946598 L36.4353726,20.946598 L36.4353726,33.8498967 L40.2140222,33.8498967 Z M50.4637045,34.1171967 C51.2656045,34.1171967 52.0128294,34.0139217 52.7053793,33.8073717 C53.3979293,33.6008217 53.9973292,33.3051718 54.5035791,32.9204218 C54.6301416,32.8242343 54.7479713,32.723364 54.8570682,32.6178109 L54.9885501,32.4818981 L55.0165791,32.5937218 L55.0165791,32.5937218 L55.1050041,32.8778968 C55.1860041,33.1127968 55.2852291,33.3193468 55.4026791,33.4975467 C55.520129,33.6757467 55.607204,33.7931967 55.663904,33.8498967 L55.663904,33.8498967 L59.3696537,33.8498967 C59.2886537,33.7769967 59.1874037,33.6473967 59.0659037,33.4610967 C58.9444037,33.2747968 58.8431537,33.0398968 58.7621537,32.7563968 C58.6892537,32.5052968 58.6426787,32.2278719 58.6224287,31.9241219 C58.6021787,31.6203719 58.5920538,31.302447 58.5920538,30.970347 L58.5920538,30.970347 L58.5920538,25.3934975 C58.5920538,24.3323976 58.2984288,23.4575977 57.7111788,22.7690978 C57.1239289,22.0805979 56.348354,21.5642229 55.3844541,21.2199729 C54.4205542,20.875723 53.3716043,20.703598 52.2376044,20.703598 C51.0226045,20.703598 49.9331546,20.887873 48.9692547,21.2564229 C48.0053548,21.6249729 47.2419299,22.1656478 46.6789799,22.8784478 C46.11603,23.5912477 45.834555,24.4660476 45.834555,25.5028475 L45.834555,25.5028475 L49.5403046,25.5028475 C49.5403046,24.8629476 49.7691296,24.3870726 50.2267796,24.0752227 C50.6844295,23.7633727 51.3466045,23.6074477 52.2133044,23.6074477 C53.0314043,23.6074477 53.6692792,23.7451477 54.1269292,24.0205477 C54.5845791,24.2959476 54.8134041,24.6725976 54.8134041,25.1504976 L54.8134041,25.1504976 L54.8134041,25.1747976 C54.8134041,25.4582975 54.5440791,25.6567475 54.0054292,25.7701475 C53.4667792,25.8835475 52.4887043,26.0090975 51.0712045,26.1467975 C50.0992046,26.2439975 49.1980797,26.4444724 48.3678297,26.7482224 C47.5375798,27.0519724 46.8713549,27.4913973 46.3691549,28.0664973 C45.866955,28.6415972 45.615855,29.3867971 45.615855,30.3020971 C45.615855,31.112097 45.822405,31.8005969 46.235505,32.3675969 C46.6486049,32.9345968 47.2216799,33.3679468 47.9547298,33.6676467 C48.6877797,33.9673467 49.5241046,34.1171967 50.4637045,34.1171967 Z M51.4721544,31.298397 C50.7836545,31.298397 50.2652546,31.187022 49.9169546,30.964272 C49.5686546,30.741522 49.3945046,30.407397 49.3945046,29.9618971 C49.3945046,29.4920971 49.5990296,29.1579722 50.0080796,28.9595222 C50.4171295,28.7610722 51.0347545,28.6213472 51.8609544,28.5403472 C52.5575543,28.4674472 53.2561793,28.3682222 53.9568292,28.2426723 C54.1903792,28.2008223 54.4147042,28.1551473 54.6298041,28.1056473 L54.8735501,28.0458981 L54.8741541,28.1515473 C54.8741541,28.8139472 54.7461541,29.3643471 54.4901541,29.8027471 L54.3881542,29.9618971 C54.0641542,30.423597 53.6449792,30.761772 53.1306293,30.976422 C52.6162793,31.191072 52.0634544,31.298397 51.4721544,31.298397 Z" id="mora"></path>
            </g>
        </g>
    </g>
</svg>